<?xml version="1.0" standalone="no"?>
<!DOCTYPE svg PUBLIC "-//W3C//DTD SVG 20010904//EN"
 "http://www.w3.org/TR/2001/REC-SVG-20010904/DTD/svg10.dtd">
<svg version="1.0" xmlns="http://www.w3.org/2000/svg"
 width="238.000000pt" height="316.000000pt" viewBox="0 0 238.000000 316.000000"
 preserveAspectRatio="xMidYMid meet">

<g transform="translate(0.000000,316.000000) scale(0.100000,-0.100000)"
fill="#000000" stroke="none">
<path d="M628 3090 c-27 -27 -30 -36 -25 -71 7 -56 39 -82 94 -76 64 7 91 46
79 112 -5 25 -15 37 -40 49 -49 23 -74 20 -108 -14z m12 -25 c-7 -9 -15 -13
-18 -10 -3 2 1 11 8 20 7 9 15 13 18 10 3 -2 -1 -11 -8 -20z"/>
<path d="M1496 2995 l-24 -26 -34 21 c-18 11 -50 20 -71 20 -31 0 -45 -8 -82
-45 -41 -40 -45 -49 -45 -93 0 -46 4 -53 58 -110 31 -33 68 -64 82 -68 98 -28
197 43 188 135 -3 32 0 37 17 37 33 -1 26 44 -10 69 -20 13 -29 27 -27 41 2
11 -4 26 -12 33 -13 11 -19 8 -40 -14z m34 -16 c0 -7 -8 -18 -17 -25 -16 -11
-15 -13 12 -20 31 -7 65 -31 65 -46 0 -16 -27 -8 -53 16 -14 13 -28 22 -30 19
-12 -11 -18 39 -7 52 15 18 30 19 30 4z"/>
<path d="M865 2987 c-8 -12 -15 -31 -15 -42 0 -11 -12 -52 -26 -90 -38 -106
-76 -226 -71 -231 9 -9 360 119 365 134 6 19 -42 105 -82 147 -44 44 -84 74
-128 93 -24 10 -29 9 -43 -11z m76 -36 c50 -24 82 -54 123 -115 29 -43 34 -65
11 -46 -8 7 -15 18 -15 24 0 18 -90 105 -137 133 -24 14 -43 30 -43 36 0 9 2
9 8 1 4 -7 28 -21 53 -33z m-4 -57 c46 -31 54 -40 49 -60 -5 -19 0 -26 24 -39
16 -9 30 -17 30 -19 0 -3 3 -11 6 -19 3 -10 -4 -18 -23 -25 -15 -6 -51 -19
-79 -30 -50 -19 -51 -19 -47 -1 4 13 0 19 -12 19 -12 0 -16 -6 -12 -19 3 -12
-1 -22 -10 -25 -24 -10 -33 -7 -33 9 0 17 -9 19 -29 6 -8 -5 -11 -16 -8 -24 3
-9 -1 -18 -9 -21 -8 -3 -14 -3 -14 0 0 9 51 158 55 163 3 2 11 -1 18 -8 20
-16 47 -3 47 24 0 18 -27 43 -35 33 -1 -2 -7 -12 -14 -23 -11 -18 -11 -18 -5
5 10 40 32 90 39 90 4 0 31 -16 62 -36z"/>
<path d="M880 2896 c0 -9 5 -16 10 -16 6 0 10 4 10 9 0 6 -4 13 -10 16 -5 3
-10 -1 -10 -9z"/>
<path d="M940 2860 c-12 -7 -12 -12 -2 -22 9 -9 15 -9 24 0 16 16 -2 34 -22
22z"/>
<path d="M912 2798 c-17 -17 -15 -36 6 -47 13 -7 23 -6 30 1 17 17 15 45 -4
52 -20 8 -18 8 -32 -6z"/>
<path d="M825 2749 c-4 -6 -4 -13 -1 -16 8 -8 36 5 36 17 0 13 -27 13 -35 -1z"/>
<path d="M980 2745 c-17 -21 -9 -27 13 -10 10 7 14 16 9 19 -5 3 -15 -1 -22
-9z"/>
<path d="M344 2886 c-35 -25 -49 -71 -35 -116 13 -43 89 -160 218 -335 49 -66
111 -155 138 -199 97 -153 164 -208 229 -186 39 12 78 52 95 97 25 62 -19 145
-218 413 -195 262 -351 381 -427 326z m112 -31 c27 -13 82 -57 123 -97 124
-123 366 -461 392 -548 9 -30 8 -43 -5 -67 -18 -36 -97 -79 -124 -67 -9 4 -20
7 -24 6 -9 -2 -48 48 -48 62 0 6 5 4 11 -4 21 -30 3 6 -21 42 -14 21 -31 37
-39 35 -8 -1 -15 7 -16 19 -2 23 -37 74 -113 163 -29 35 -49 67 -46 73 4 6 2
8 -3 5 -14 -9 -37 19 -28 33 4 6 1 9 -6 8 -16 -4 -81 81 -73 94 5 7 2 8 -6 3
-10 -6 -12 -4 -7 8 3 9 2 16 -4 14 -6 -1 -28 27 -50 62 -45 75 -52 128 -19
161 26 26 46 25 106 -5z"/>
<path d="M481 2777 c-13 -35 -14 -124 -2 -132 17 -10 41 38 41 80 0 23 -6 50
-14 61 -14 18 -15 18 -25 -9z m16 -84 c-3 -10 -5 -2 -5 17 0 19 2 27 5 18 2
-10 2 -26 0 -35z"/>
<path d="M561 2689 c-13 -38 -14 -128 -2 -148 16 -25 38 -4 50 47 10 41 10 55
-4 90 -10 23 -21 42 -25 42 -4 0 -13 -14 -19 -31z m28 -74 c1 -33 -2 -55 -8
-55 -12 0 -15 92 -4 103 3 4 7 7 8 7 1 0 3 -25 4 -55z"/>
<path d="M661 2601 c-15 -27 -14 -158 1 -167 30 -19 60 94 38 146 -16 40 -27
45 -39 21z m18 -83 c0 -45 -3 -56 -8 -38 -7 24 -3 100 5 100 2 0 4 -28 3 -62z"/>
<path d="M740 2460 c-16 -58 -9 -144 11 -148 22 -4 39 40 39 101 -1 46 -16 87
-33 87 -4 0 -11 -18 -17 -40z m21 -107 c-8 -14 -10 -10 -11 24 0 61 14 89 18
36 2 -24 -1 -51 -7 -60z"/>
<path d="M840 2320 c-13 -50 -9 -162 6 -167 16 -5 44 69 44 117 0 40 -17 90
-31 90 -5 0 -13 -18 -19 -40z m21 -93 c-9 -9 -10 -5 -7 13 6 36 8 37 13 16 3
-10 0 -23 -6 -29z"/>
<path d="M1656 2729 c-27 -21 -103 -128 -146 -206 -23 -42 -40 -48 -40 -14 0
20 -33 54 -43 44 -12 -11 -8 -56 7 -84 13 -26 13 -27 -23 -33 -21 -3 -48 -17
-60 -30 -31 -33 -40 -106 -17 -141 15 -23 15 -28 1 -55 -23 -45 -19 -85 11
-109 34 -26 64 -26 115 -1 l40 21 38 -33 c51 -44 161 -104 239 -131 57 -20 64
-21 90 -7 23 14 27 23 30 68 4 66 -24 119 -79 153 -21 13 -39 27 -39 32 0 4
-6 7 -14 7 -8 0 -31 10 -51 21 -28 17 -47 20 -85 17 -28 -3 -50 -4 -50 -2 0 1
21 37 46 80 149 252 181 424 78 424 -12 0 -33 -9 -48 -21z m85 -20 c6 -13 9
-40 6 -64 -14 -96 -166 -389 -226 -433 -20 -15 -31 -31 -31 -47 0 -30 -50 -65
-92 -65 -40 0 -70 33 -62 68 13 51 23 63 44 52 11 -6 20 -14 20 -17 0 -3 -3
-3 -7 0 -7 8 -33 -11 -33 -24 0 -14 64 -11 101 5 19 8 44 27 55 43 32 43 65
111 55 115 -4 2 -11 15 -14 30 -6 23 -3 27 21 33 35 8 78 43 66 54 -5 5 -34 0
-64 -10 -56 -19 -100 -24 -100 -12 0 17 129 221 161 255 42 44 81 51 100 17z
m-171 -283 c0 -2 -7 -7 -16 -10 -8 -3 -12 -2 -9 4 6 10 25 14 25 6z m-212 -56
c-10 -29 -8 -59 7 -105 7 -20 6 -20 -9 -1 -18 22 -21 88 -6 117 16 29 20 23 8
-11z m271 -175 c-35 -59 -18 -70 43 -30 76 51 89 47 38 -12 -30 -33 -39 -63
-20 -63 5 0 32 14 61 30 28 17 59 29 68 27 11 -2 7 -8 -15 -19 -25 -14 -54
-53 -54 -73 0 -10 46 -3 70 10 41 23 58 19 65 -18 4 -18 1 -45 -5 -61 -10 -27
-14 -28 -53 -24 -89 10 -317 148 -317 192 0 38 54 74 112 75 l27 1 -20 -35z
m61 18 c-1 -10 -50 -46 -56 -41 -6 6 35 48 46 48 6 0 10 -3 10 -7z m94 -42 c4
-5 -14 -21 -39 -34 -39 -22 -44 -23 -35 -7 10 19 48 50 62 50 4 0 9 -4 12 -9z
m66 -50 c0 -4 -19 -21 -41 -36 -23 -15 -39 -21 -37 -13 3 7 19 23 38 36 37 25
40 26 40 13z"/>
<path d="M1643 2640 c-18 -11 -33 -23 -33 -26 0 -10 91 5 106 17 40 33 -22 40
-73 9z"/>
<path d="M1640 2568 c-41 -10 -99 -53 -88 -63 10 -11 98 15 131 37 49 35 31
46 -43 26z m20 -18 c-8 -5 -22 -10 -30 -10 -13 0 -13 1 0 10 8 5 22 10 30 10
13 0 13 -1 0 -10z"/>
<path d="M1060 2658 c-77 -11 -110 -29 -110 -62 0 -13 -7 -29 -15 -36 -19 -16
-19 -49 -1 -69 8 -9 29 -77 45 -151 48 -213 39 -196 97 -192 27 2 65 7 84 13
19 5 52 9 72 9 20 0 39 3 41 8 3 4 -1 86 -7 182 -8 114 -9 179 -3 188 11 14
-6 62 -23 62 -5 0 -16 14 -25 30 -17 34 -34 36 -155 18z m124 -4 c9 -3 16 -17
16 -30 0 -17 6 -24 19 -24 20 0 37 -29 24 -40 -9 -9 -250 -50 -288 -50 -30 0
-32 13 -6 39 11 11 21 32 23 48 3 24 9 29 43 35 22 4 63 11 90 16 28 6 53 10
57 11 3 0 13 -2 22 -5z m-148 -221 c4 -21 7 -22 27 -10 12 6 29 20 39 30 18
20 26 21 46 5 9 -8 10 -14 2 -22 -5 -5 -10 -15 -10 -20 0 -6 9 0 20 14 17 21
21 23 30 10 14 -20 8 -56 -9 -52 -9 2 -11 -3 -7 -13 6 -16 -22 -70 -32 -61 -2
3 -11 -2 -19 -10 -8 -8 -20 -11 -26 -7 -28 17 -38 12 -33 -18 3 -16 8 -44 11
-61 l4 -33 -10 35 c-6 19 -19 62 -30 95 -11 36 -19 84 -18 120 1 33 3 51 6 40
2 -11 6 -30 9 -42z m-30 -54 c14 -54 18 -97 9 -87 -3 2 -9 29 -15 59 -6 30
-13 63 -16 74 -4 11 -3 17 0 14 4 -4 14 -31 22 -60z m31 -161 c-3 -8 -6 -5 -6
6 -1 11 2 17 5 13 3 -3 4 -12 1 -19z"/>
<path d="M1086 2391 c-3 -4 6 -6 19 -3 14 2 25 6 25 8 0 8 -39 4 -44 -5z"/>
<path d="M1057 2363 c-4 -3 -7 -13 -7 -21 0 -12 3 -12 15 -2 8 7 15 16 15 21
0 11 -14 12 -23 2z"/>
<path d="M432 2315 c-15 -18 -29 -25 -56 -25 -41 0 -41 -1 -21 -40 12 -24 13
-33 3 -49 -29 -47 32 -116 102 -116 52 0 89 36 97 93 6 45 -15 92 -42 92 -8 0
-21 16 -29 35 -18 42 -28 43 -54 10z m36 -22 c-2 -14 -8 -28 -14 -30 -7 -2 -9
8 -6 27 5 37 25 40 20 3z m-68 -28 c14 -8 19 -14 10 -14 -8 0 -24 6 -34 14
-25 19 -9 19 24 0z"/>
<path d="M1085 2054 c-22 -25 -47 -61 -55 -80 -17 -39 -39 -38 -77 2 -24 26
-52 31 -70 13 -9 -9 -16 -8 -28 5 -29 29 -85 17 -85 -17 0 -18 -9 -11 -46 31
-55 62 -89 82 -143 82 -68 0 -89 -55 -51 -137 21 -46 18 -50 -20 -28 -29 17
-66 19 -75 5 -3 -5 10 -26 30 -47 19 -20 35 -34 35 -30 0 4 19 -2 43 -14 24
-13 36 -24 29 -27 -8 -2 -27 5 -43 17 -63 47 -22 -32 65 -123 25 -27 46 -52
46 -57 0 -4 -18 -10 -41 -14 -30 -5 -39 -11 -37 -23 3 -14 13 -16 50 -14 l47
4 24 -49 c17 -32 23 -58 20 -77 -4 -19 1 -36 15 -55 12 -17 20 -42 19 -63 l-1
-36 -30 23 c-48 35 -129 75 -153 75 -13 0 -30 -11 -39 -25 -15 -23 -15 -27 -1
-49 18 -26 126 -86 156 -86 21 0 23 -7 82 -215 11 -38 24 -81 29 -95 4 -14 22
-78 40 -142 l32 -117 -21 -29 c-32 -45 -71 -134 -71 -161 0 -14 8 -33 17 -43
12 -14 14 -21 6 -26 -7 -4 -17 -20 -23 -36 -9 -24 -7 -36 11 -72 24 -51 21
-68 -27 -134 -38 -54 -40 -62 -18 -84 18 -18 150 -23 156 -6 2 5 15 11 30 12
15 1 24 6 22 10 -3 4 2 8 10 8 18 0 30 33 21 60 -3 10 -1 28 4 39 12 21 4 54
-10 46 -4 -3 -6 4 -4 15 2 11 0 20 -4 20 -4 0 -7 24 -7 53 0 28 -3 60 -8 69
-8 17 9 18 288 18 l296 0 -16 -25 c-12 -18 -15 -39 -12 -69 l5 -43 -35 -1
c-20 -1 -44 -10 -57 -22 -27 -26 -32 -25 -39 4 -7 30 -29 39 -61 24 -29 -13
-32 -39 -10 -91 10 -24 13 -51 9 -80 -7 -52 12 -67 52 -40 24 15 62 88 56 106
-1 5 2 5 8 2 15 -9 55 29 71 66 11 28 13 29 35 14 74 -48 163 18 150 111 -4
35 -3 44 9 44 47 0 72 84 37 126 -34 43 -45 44 -441 44 -210 0 -381 4 -381 8
0 5 6 15 13 24 9 12 60 19 252 32 376 26 469 34 486 41 18 7 142 399 143 455
1 32 -1 35 -31 38 -39 4 -44 27 -9 43 46 21 60 92 27 144 -18 30 -18 30 10 87
25 49 29 70 29 136 0 68 4 87 31 141 l31 62 -22 24 c-32 34 -164 97 -196 93
-20 -2 -29 -12 -38 -39 -19 -55 -53 -97 -97 -119 -22 -12 -53 -39 -69 -62 -36
-49 -36 -46 -10 36 12 35 23 81 24 102 2 22 7 62 11 91 7 50 7 52 -19 59 -14
3 -26 13 -26 20 0 16 -47 37 -66 30 -6 -2 -17 -21 -24 -40 -9 -28 -17 -36 -36
-36 -14 0 -27 -7 -29 -15 -16 -49 -18 -49 -33 5 -9 30 -22 61 -29 68 -7 7 -13
18 -13 23 0 5 -7 9 -15 9 -8 0 -15 5 -15 10 0 6 -12 10 -27 10 -21 0 -39 -13
-68 -46z m75 27 c0 -5 8 -12 18 -14 9 -3 -3 -5 -28 -5 -25 0 -37 2 -27 5 9 2
17 9 17 14 0 5 5 9 10 9 6 0 10 -4 10 -9z m-531 -16 c31 -15 125 -115 117
-123 -3 -2 -16 8 -30 24 -56 66 -65 75 -100 89 -20 8 -36 17 -36 20 0 9 21 5
49 -10z m786 -25 c8 -13 -23 -160 -33 -160 -4 0 -17 7 -29 15 l-22 15 20 68
c10 37 19 68 19 69 0 8 40 1 45 -7z m-228 -10 c45 0 72 -111 36 -148 -10 -10
-26 -32 -35 -48 -20 -35 -40 -41 -62 -19 -18 18 -22 60 -6 70 6 3 10 -3 10
-14 0 -13 7 -21 16 -21 11 0 15 6 11 20 -4 16 0 20 19 20 13 0 24 5 24 11 0 5
-5 7 -10 4 -6 -3 -14 4 -19 17 l-8 23 -8 -24 c-5 -16 -10 -20 -18 -12 -12 12
-47 -23 -47 -48 0 -9 -12 2 -26 23 -31 46 -27 87 12 130 22 23 32 27 57 22 16
-3 40 -6 54 -6z m-343 -46 c9 -8 16 -21 16 -27 0 -7 7 -4 14 6 19 24 66 23 73
-3 3 -11 14 -20 24 -20 26 0 33 -18 18 -46 -11 -21 -20 -24 -65 -24 -31 0 -54
5 -56 12 -6 17 -49 20 -62 4 -6 -8 -21 -17 -33 -21 -20 -5 -23 -3 -23 18 0 30
23 51 50 44 26 -7 26 7 -2 25 -14 9 -19 20 -15 31 8 21 41 22 61 1z m634 -1
c2 -8 -6 -13 -22 -13 -17 0 -26 5 -26 16 0 19 41 16 48 -3z m-148 -30 c0 -27
-14 -43 -29 -34 -17 11 -5 51 15 51 8 0 14 -8 14 -17z m140 -14 c0 -16 -13
-53 -25 -67 -1 -1 -10 0 -19 4 -18 7 -20 22 -6 58 12 32 50 36 50 5z m-740
-52 c0 -31 -3 -38 -10 -27 -17 26 -12 -58 6 -92 18 -35 6 -60 -20 -39 -11 9
-15 9 -18 0 -2 -7 -16 -13 -31 -15 -32 -3 -39 8 -57 86 -7 30 -19 68 -27 83
-33 66 27 42 75 -30 20 -30 38 -50 40 -45 2 6 -1 20 -7 31 -8 14 -8 28 0 48
24 65 49 65 49 0z m1008 24 c31 -16 68 -38 82 -50 l25 -21 -30 6 c-47 9 -164
68 -165 82 0 19 26 14 88 -17z m-415 -23 c23 -11 63 -26 88 -32 l46 -11 -31
-97 c-28 -88 -33 -97 -51 -91 -11 4 -32 7 -47 7 -21 -1 -27 4 -32 27 -3 16
-11 29 -17 29 -7 0 -9 -10 -6 -28 5 -23 1 -30 -25 -45 -17 -10 -32 -16 -33
-15 -1 2 -12 20 -24 41 l-23 37 30 34 c26 30 62 120 62 155 0 16 16 14 63 -11z
m457 -64 c67 -32 64 -28 50 -54 -6 -11 -15 -40 -19 -63 -5 -31 -11 -41 -23
-39 -26 4 -29 -75 -4 -92 18 -12 19 -15 6 -47 -8 -19 -20 -44 -28 -56 -13 -21
-16 -21 -36 -8 -11 9 -39 20 -60 26 -22 6 -58 26 -80 45 -22 19 -46 32 -53 30
-7 -3 -19 9 -28 28 -9 18 -27 38 -41 45 -20 9 -24 16 -18 34 12 40 54 83 109
113 11 6 35 33 54 62 l34 51 41 -25 c23 -13 66 -36 96 -50z m-1219 39 c13 -16
12 -17 -3 -4 -10 7 -18 15 -18 17 0 8 8 3 21 -13z m299 9 c0 -5 -7 -17 -15
-28 -8 -10 -15 -32 -15 -48 0 -23 -3 -27 -20 -23 -12 3 -24 -1 -29 -11 -8 -14
-11 -14 -26 -2 -34 28 -39 80 -9 80 12 0 13 -4 3 -22 -11 -21 -11 -22 4 -9 10
7 17 19 17 27 0 14 45 41 73 43 9 1 17 -3 17 -7z m80 -20 c0 -9 -76 -52 -91
-52 -15 0 -10 19 11 40 19 19 80 28 80 12z m44 -141 c13 -6 34 -18 45 -27 20
-17 20 -18 -27 -105 -26 -49 -50 -85 -54 -81 -4 4 11 43 33 86 39 74 40 78 22
91 -48 37 -126 1 -139 -65 -9 -42 -25 -49 -18 -8 8 45 34 80 75 100 40 21 32
20 63 9z m381 -79 c-3 -3 -11 0 -18 7 -9 10 -8 11 6 5 10 -3 15 -9 12 -12z
m-60 -2 c4 -6 11 -8 16 -5 5 4 9 -11 9 -33 0 -31 -7 -46 -32 -71 l-33 -32 -17
38 c-21 48 -22 63 -2 91 16 23 48 29 59 12z m-571 -25 c37 -34 33 -52 -5 -21
-25 22 -41 26 -92 27 -73 1 -51 17 24 18 36 1 52 -5 73 -24z m729 8 c-7 -2
-21 -2 -30 0 -10 3 -4 5 12 5 17 0 24 -2 18 -5z m-265 -48 c-13 -19 -31 -35
-42 -35 -17 0 -17 2 -4 23 12 17 52 46 66 47 1 0 -8 -16 -20 -35z m-321 -35
c11 -22 8 -26 -58 -67 -38 -24 -73 -43 -77 -43 -13 0 -34 52 -25 61 19 19 128
79 138 76 5 -2 15 -14 22 -27z m-87 16 c0 -2 -7 -7 -16 -10 -8 -3 -12 -2 -9 4
6 10 25 14 25 6z m318 -13 c-4 -22 -48 -31 -48 -10 0 19 10 27 32 27 13 0 18
-6 16 -17z m452 -1 c0 -13 -49 -56 -56 -50 -9 9 27 58 42 58 8 0 14 -4 14 -8z
m-329 -41 c10 -34 9 -42 -4 -56 -9 -9 -13 -23 -10 -33 4 -11 3 -13 -3 -7 -9 9
-21 41 -39 102 -5 20 1 26 37 32 4 0 12 -17 19 -38z m369 5 c0 -19 -40 -63
-41 -45 0 8 -4 6 -8 -5 -5 -13 -10 -16 -15 -8 -4 6 4 21 19 34 14 12 25 28 25
35 0 8 5 11 10 8 6 -3 10 -12 10 -19z m-440 -39 c6 -23 18 -57 27 -76 16 -30
16 -34 2 -45 -9 -6 -14 -16 -12 -23 2 -6 -1 -14 -6 -18 -11 -6 -15 7 -11 34 3
25 -33 141 -42 135 -5 -3 -7 -26 -5 -50 6 -49 -6 -66 -23 -34 -14 26 -5 71 21
105 26 31 36 26 49 -28z m295 10 c43 -41 56 -67 36 -67 -6 0 -12 4 -16 10 -3
5 -12 7 -21 3 -17 -6 -54 23 -54 44 0 7 -6 13 -14 13 -18 0 -29 16 -21 30 13
21 46 8 90 -33z m-78 -12 c39 -47 78 -65 141 -65 25 0 32 -4 32 -19 0 -11 -4
-23 -10 -26 -5 -3 -10 -14 -10 -23 0 -9 -5 -34 -11 -54 l-10 -38 -165 0 c-91
0 -164 4 -162 8 2 4 16 45 32 90 28 79 30 82 42 59 7 -13 24 -32 38 -41 29
-18 101 -23 90 -5 -3 6 -17 8 -31 4 -49 -12 -116 63 -93 104 34 64 67 65 117
6z m-407 4 c23 -17 45 -39 47 -50 3 -10 9 -17 13 -14 8 5 50 -49 50 -65 0 -5
4 -10 10 -10 5 0 19 -18 30 -41 l21 -40 -73 2 c-87 2 -120 15 -116 42 2 11 11
21 21 23 11 1 22 6 25 10 4 4 -1 4 -10 1 -27 -10 -9 23 18 34 27 10 32 29 8
29 -9 0 -32 -17 -50 -37 l-34 -37 0 31 c0 17 5 33 11 35 7 2 5 9 -5 17 -14 11
-17 10 -25 -10 -10 -23 -10 -24 -10 -2 -1 12 -6 25 -12 28 -6 4 -14 17 -18 29
-7 17 -3 25 18 38 33 23 31 23 81 -13z m735 -2 c53 -30 84 -85 67 -121 -13
-29 -62 -38 -62 -12 0 23 -22 31 -35 13 -7 -11 -16 -13 -26 -6 -11 7 -12 9 0
9 7 0 25 12 39 28 13 15 21 21 17 14 -5 -10 0 -11 22 -6 36 9 42 14 15 14 -12
0 -21 3 -21 8 3 20 -3 30 -26 40 -39 18 -66 15 -72 -8 -3 -11 -9 -20 -12 -20
-17 0 -18 13 -4 41 18 36 43 37 98 6z m-925 -114 c17 -72 18 -103 4 -103 -18
0 -42 118 -29 140 10 16 13 12 25 -37z m895 29 c-3 -3 -11 0 -18 7 -9 10 -8
11 6 5 10 -3 15 -9 12 -12z m-930 -108 l13 -39 419 -7 c507 -8 600 -11 608
-19 3 -4 -10 -55 -29 -115 -18 -60 -50 -162 -70 -226 -42 -136 -15 -121 -256
-138 -91 -6 -209 -15 -263 -21 -54 -5 -131 -9 -172 -9 -72 0 -75 -1 -99 -32
-27 -36 -86 -156 -86 -175 0 -20 -28 -15 -35 6 -6 21 41 135 74 176 15 20 17
31 10 58 -92 330 -153 534 -161 544 -6 8 -5 19 2 33 14 27 26 17 45 -36z m947
-9 c-1 -5 -16 -8 -32 -7 -17 2 -30 -1 -30 -7 0 -6 -9 -11 -20 -11 -25 0 -26
15 -2 29 21 13 88 10 84 -4z m-755 -11 c-3 -3 -12 -4 -19 -1 -8 3 -5 6 6 6 11
1 17 -2 13 -5z m732 -645 c35 -12 51 -35 51 -73 0 -37 -10 -56 -30 -56 -14 0
-17 8 -16 37 2 62 -1 63 -426 63 -208 0 -378 2 -378 4 0 2 3 11 6 20 5 14 49
16 384 16 249 0 388 -4 409 -11z m-24 -59 c4 -7 -130 -10 -394 -10 -261 0
-401 3 -401 10 0 6 138 10 394 10 253 0 397 -4 401 -10z m-95 -34 c0 -2 -3
-11 -6 -20 -5 -14 -42 -16 -305 -16 -292 0 -299 0 -299 20 0 20 7 20 305 20
168 0 305 -2 305 -4z m95 -6 c-3 -5 -10 -10 -16 -10 -5 0 -9 5 -9 10 0 6 7 10
16 10 8 0 12 -4 9 -10z m-90 -172 c31 -14 65 7 88 54 l17 33 0 -33 c0 -45 -38
-82 -83 -82 -44 0 -71 30 -70 75 2 56 18 66 21 12 3 -39 7 -50 27 -59z m-731
7 c14 -11 14 -14 2 -24 -11 -9 -18 -6 -35 15 -24 31 -26 46 -9 77 11 21 12 20
19 -17 3 -22 14 -45 23 -51z m3 53 c-3 -7 -5 -2 -5 12 0 14 2 19 5 13 2 -7 2
-19 0 -25z m101 -32 c-2 -24 -7 -41 -12 -38 -5 3 -16 -4 -24 -14 -14 -18 -14
-18 -8 0 5 14 2 17 -9 12 -22 -8 -18 6 10 33 14 13 25 29 25 37 0 8 5 14 10
14 6 0 9 -19 8 -44z m562 -62 c0 -8 -19 -13 -24 -6 -3 5 1 9 9 9 8 0 15 -2 15
-3z m-592 -52 c2 -7 -6 -12 -17 -12 -21 0 -27 11 -14 24 9 9 26 2 31 -12z
m-11 -87 c-5 -14 -37 -19 -50 -6 -7 7 -6 15 2 25 10 12 16 13 32 3 10 -6 18
-16 16 -22z"/>
<path d="M1170 1859 c0 -5 5 -7 10 -4 6 3 10 8 10 11 0 2 -4 4 -10 4 -5 0 -10
-5 -10 -11z"/>
<path d="M1140 1825 c0 -9 6 -12 15 -9 8 4 15 10 15 15 0 5 -7 9 -15 9 -8 0
-15 -7 -15 -15z"/>
<path d="M910 1925 c0 -9 9 -15 23 -14 19 1 19 2 3 6 -15 4 -16 7 -5 14 11 7
11 9 -3 9 -10 0 -18 -7 -18 -15z"/>
<path d="M1305 1440 c27 -12 35 -12 35 0 0 6 -12 10 -27 9 -25 0 -26 -1 -8 -9z"/>
<path d="M1303 1390 c14 -11 29 -20 33 -20 4 0 -1 9 -11 20 -10 11 -25 20 -33
20 -9 0 -6 -7 11 -20z"/>
<path d="M1428 1333 c-10 -3 -18 -8 -18 -12 0 -4 -11 -13 -24 -19 -19 -8 -26
-8 -30 1 -2 7 -5 4 -5 -5 -1 -23 6 -23 53 3 l39 20 -6 -23 c-6 -22 -5 -22 8
-4 24 32 17 46 -17 39z"/>
<path d="M1490 1312 c0 -10 -5 -23 -12 -30 -9 -9 -9 -12 0 -12 12 0 32 31 32
49 0 6 -4 11 -10 11 -5 0 -10 -8 -10 -18z"/>
<path d="M910 1461 c0 -6 4 -13 10 -16 6 -3 7 1 4 9 -7 18 -14 21 -14 7z"/>
<path d="M1735 1349 c-4 -6 -5 -13 -2 -16 7 -7 27 6 27 18 0 12 -17 12 -25 -2z"/>
<path d="M770 1186 c0 -9 28 -110 35 -128 5 -13 18 -18 46 -18 45 0 46 3 25
90 l-12 55 -47 3 c-26 2 -47 1 -47 -2z m84 -53 c4 -21 9 -46 12 -55 4 -14 -1
-18 -19 -18 -23 0 -37 17 -37 43 0 7 7 4 14 -6 13 -17 14 -16 13 15 -2 24 -6
33 -19 32 -9 -1 -19 5 -22 12 -4 10 3 14 23 14 25 0 30 -4 35 -37z"/>
<path d="M891 1168 c0 -13 6 -45 12 -73 l12 -50 63 -3 c70 -3 67 -8 50 84
l-11 64 -64 0 c-59 0 -63 -1 -62 -22z m84 -5 c-16 -3 -38 -12 -47 -20 -17 -15
-18 -14 -18 5 0 20 5 22 48 21 33 -2 38 -3 17 -6z m36 -40 c7 -20 7 -29 -1
-31 -8 -3 -8 -8 1 -18 10 -12 4 -14 -35 -14 -43 0 -46 2 -46 26 0 26 14 46 40
57 26 10 30 8 41 -20z"/>
<path d="M1045 1180 c-2 -3 1 -36 8 -73 l11 -67 59 0 59 0 -4 65 c-2 35 -6 66
-8 69 -8 7 -121 13 -125 6z m51 -47 c-2 -42 -26 -41 -26 1 0 26 4 34 14 30 7
-3 13 -17 12 -31z m51 5 c-3 -8 -6 -5 -6 6 -1 11 2 17 5 13 3 -3 4 -12 1 -19z
m12 -70 c1 -5 -17 -8 -39 -8 -47 0 -53 16 -10 25 17 4 30 12 31 18 0 12 17
-20 18 -35z"/>
<path d="M1198 1173 c-2 -5 -2 -36 0 -70 l4 -63 58 0 c66 0 70 5 70 93 l0 47
-64 0 c-36 0 -66 -3 -68 -7z m120 -17 c2 -3 1 -9 -3 -15 -4 -8 -13 -8 -28 1
-12 6 -35 11 -50 10 -19 -2 -26 1 -21 9 6 10 90 6 102 -5z m-25 -33 c29 -9 20
-31 -9 -25 -19 3 -25 1 -20 -7 4 -6 16 -11 27 -11 10 0 19 -4 19 -10 0 -18
-45 -10 -58 10 -7 11 -19 20 -27 20 -8 0 -15 6 -15 14 0 16 27 26 50 19 8 -3
23 -8 33 -10z m-53 -53 c0 -5 -4 -10 -10 -10 -5 0 -10 5 -10 10 0 6 5 10 10
10 6 0 10 -4 10 -10z"/>
<path d="M1350 1110 l0 -70 54 0 c60 0 56 -6 71 98 l7 42 -66 0 -66 0 0 -70z
m110 40 c0 -5 -5 -10 -11 -10 -6 0 -8 -9 -4 -22 6 -17 4 -20 -9 -15 -10 4 -16
1 -16 -8 0 -8 7 -15 15 -15 8 0 15 -4 15 -10 0 -5 -9 -10 -20 -10 -11 0 -20 5
-20 10 0 6 -4 10 -10 10 -5 0 -10 -7 -10 -16 0 -23 -24 -11 -28 14 -2 15 3 21
20 24 30 4 38 38 9 38 -12 0 -21 5 -21 10 0 6 20 10 45 10 25 0 45 -4 45 -10z"/>
<path d="M1501 1158 c-4 -13 -11 -44 -13 -70 l-6 -48 59 0 58 0 15 54 c25 85
25 86 -44 86 -54 0 -61 -3 -69 -22z"/>
<path d="M1661 1170 c-4 -3 -15 -31 -24 -63 -18 -65 -14 -71 40 -65 24 3 31
11 50 65 l22 61 -40 4 c-22 2 -43 1 -48 -2z m59 -27 c-1 -10 -6 -31 -13 -46
-11 -25 -14 -27 -31 -14 -15 11 -17 17 -7 35 7 13 9 27 6 32 -3 6 5 10 19 10
18 0 26 -5 26 -17z m-55 -73 c3 -5 1 -10 -4 -10 -6 0 -11 5 -11 10 0 6 2 10 4
10 3 0 8 -4 11 -10z"/>
<path d="M820 1015 c0 -3 7 -35 16 -70 l16 -65 40 0 c39 0 40 0 33 33 -22 105
-23 107 -65 107 -22 0 -40 -2 -40 -5z m70 -29 c0 -9 -7 -12 -20 -9 -11 3 -20
9 -20 14 0 5 9 9 20 9 11 0 20 -6 20 -14z m10 -76 c0 -5 -2 -10 -4 -10 -3 0
-8 5 -11 10 -3 6 -1 10 4 10 6 0 11 -4 11 -10z"/>
<path d="M934 966 c9 -84 11 -86 72 -86 61 0 62 1 43 90 l-11 50 -55 0 -56 0
7 -54z"/>
<path d="M1070 988 c0 -18 3 -50 6 -70 7 -38 7 -38 55 -38 l49 0 0 70 0 70
-55 0 -55 0 0 -32z m47 -3 c12 -12 13 -19 3 -30 -19 -23 -29 -18 -28 15 1 34
4 36 25 15z m43 -1 c0 -8 -4 -12 -10 -9 -5 3 -10 10 -10 16 0 5 5 9 10 9 6 0
10 -7 10 -16z m10 -76 c0 -5 -7 -8 -15 -8 -17 0 -18 2 -9 25 5 13 8 14 15 3 5
-7 9 -16 9 -20z"/>
<path d="M1207 1013 c-9 -8 -9 -96 -1 -117 7 -19 64 -22 95 -6 15 9 19 22 19
70 l0 60 -53 0 c-30 0 -57 -3 -60 -7z m95 -38 c-5 -30 -42 -36 -42 -7 0 23 8
32 30 32 13 0 16 -6 12 -25z m-19 -55 c9 0 17 -4 17 -10 0 -5 -18 -10 -40 -10
-30 0 -40 4 -40 16 0 12 6 15 23 10 12 -3 30 -6 40 -6z"/>
<path d="M1346 1012 c-2 -4 -6 -32 -7 -62 l-3 -55 46 -3 c46 -3 47 -3 57 35 6
21 11 50 11 66 0 26 -2 27 -49 27 -28 0 -52 -3 -55 -8z m54 -87 c11 -13 8 -15
-15 -15 -23 0 -26 2 -15 15 7 8 14 15 15 15 1 0 8 -7 15 -15z"/>
<path d="M1475 1008 c-2 -7 -8 -34 -13 -60 -11 -55 -3 -62 59 -52 32 5 40 11
45 33 3 14 10 39 15 55 5 16 9 31 9 32 0 2 -25 4 -55 4 -36 0 -57 -4 -60 -12z"/>
<path d="M1601 978 c-7 -24 -15 -51 -17 -60 -5 -15 1 -18 36 -18 44 0 55 14
67 88 6 32 5 32 -34 32 -38 0 -40 -2 -52 -42z m60 -5 c-12 -20 -14 -14 -5 12
4 9 9 14 11 11 3 -2 0 -13 -6 -23z m-28 -15 c-3 -16 -9 -28 -14 -28 -12 0 -11
4 3 35 14 31 18 29 11 -7z"/>
<path d="M1468 873 c-17 -4 -48 -107 -36 -119 4 -3 25 -2 49 3 40 8 42 10 55
58 7 28 13 53 14 58 0 7 -53 8 -82 0z"/>
<path d="M1562 841 c-23 -76 -14 -93 40 -72 16 6 28 23 36 49 18 58 16 62 -26
62 -36 0 -40 -2 -50 -39z"/>
<path d="M1335 858 c-2 -7 -6 -34 -10 -60 l-6 -48 44 0 c44 0 45 1 52 38 3 20
9 47 12 60 5 20 2 22 -41 22 -29 0 -48 -5 -51 -12z"/>
<path d="M881 851 c-11 -7 -11 -18 -1 -64 13 -57 28 -72 61 -62 22 7 23 14 6
80 -14 51 -35 66 -66 46z m39 -26 c0 -9 -6 -12 -15 -9 -8 4 -15 10 -15 15 0 5
7 9 15 9 8 0 15 -7 15 -15z"/>
<path d="M964 833 c3 -16 8 -45 12 -65 6 -38 6 -38 55 -38 l49 0 0 39 c0 22
-4 51 -10 65 -8 23 -15 26 -61 26 -50 0 -51 0 -45 -27z m96 -10 c0 -6 -4 -15
-10 -18 -5 -3 -10 -2 -10 3 0 6 -9 8 -20 5 -16 -4 -19 -2 -14 11 7 18 54 18
54 -1z m0 -59 c0 -9 -11 -14 -29 -14 -38 0 -49 18 -19 29 28 10 48 4 48 -15z"/>
<path d="M1090 841 c0 -10 3 -40 7 -66 l6 -47 44 5 c24 2 46 7 49 9 2 3 2 31
-2 62 l-7 56 -48 0 c-41 0 -49 -3 -49 -19z m47 -7 c-3 -3 -12 -4 -19 -1 -8 3
-5 6 6 6 11 1 17 -2 13 -5z m33 -39 c0 -41 -2 -45 -24 -45 -22 0 -36 16 -36
41 0 5 6 9 14 9 8 0 18 9 21 20 11 35 25 21 25 -25z"/>
<path d="M1212 803 l3 -58 35 -3 c43 -4 60 16 60 75 l0 43 -50 0 -51 0 3 -57z
m76 0 c-2 -25 -8 -39 -19 -41 -9 -1 -16 4 -16 12 0 8 4 13 9 10 4 -3 8 0 8 5
0 6 -4 11 -9 11 -5 0 -11 9 -14 20 -4 16 0 20 20 20 22 0 24 -3 21 -37z"/>
<path d="M246 603 c-35 -9 -93 -53 -105 -79 -20 -45 -14 -102 15 -131 22 -22
32 -25 70 -20 24 2 47 1 50 -4 3 -5 16 -9 30 -9 20 0 29 9 44 46 26 59 25 68
-6 82 -30 14 -59 2 -69 -28 -13 -42 -62 -9 -51 35 9 36 39 49 73 32 38 -20 73
-6 73 27 0 23 -11 36 -35 43 -27 8 -72 11 -89 6z m-40 -45 c5 -7 3 -8 -6 -3
-10 6 -12 4 -6 -11 5 -14 4 -16 -5 -7 -6 6 -8 16 -5 22 9 14 13 14 22 -1z
m-25 -155 c13 -16 12 -17 -3 -4 -17 13 -22 21 -14 21 2 0 10 -8 17 -17z"/>
<path d="M480 571 c-69 -36 -99 -113 -64 -166 16 -25 74 -51 83 -38 3 5 19 9
35 11 17 2 37 12 47 23 9 10 20 19 24 19 18 0 34 38 35 82 0 39 -4 50 -26 67
-33 26 -88 27 -134 2z m85 -49 c-3 -3 -11 0 -18 7 -9 10 -8 11 6 5 10 -3 15
-9 12 -12z m-15 -17 c7 -8 9 -22 6 -31 -4 -10 1 -22 11 -31 10 -8 12 -11 4 -7
-12 6 -22 8 -68 13 -16 1 -17 43 -1 59 16 16 33 15 48 -3z m-115 -64 c3 -5 2
-12 -3 -15 -5 -3 -9 1 -9 9 0 17 3 19 12 6z"/>
<path d="M2169 325 c-3 -2 -19 -5 -37 -7 -18 -1 -32 -7 -32 -13 0 -5 -4 -3
-10 5 -8 13 -9 13 -13 0 -2 -8 -17 -55 -33 -103 -28 -87 -29 -89 -10 -103 26
-19 36 -18 37 4 0 10 3 12 6 5 7 -19 107 -17 123 2 14 17 5 35 -16 35 -8 0
-13 -4 -9 -9 3 -5 -8 -3 -25 5 -37 19 -38 32 -2 40 47 10 52 13 52 30 0 12 -8
15 -33 12 -26 -3 -33 0 -33 15 0 18 16 25 76 29 27 2 36 8 38 24 2 15 -4 23
-20 28 -28 7 -53 8 -59 1z m-122 -197 c-3 -8 -6 -5 -6 6 -1 11 2 17 5 13 3 -3
4 -12 1 -19z"/>
<path d="M1046 298 c-8 -13 -21 -47 -30 -76 -16 -55 -11 -87 16 -110 21 -17
64 -20 61 -4 -2 6 2 12 7 12 6 0 10 -5 10 -11 0 -19 44 2 78 37 28 28 72 115
72 142 0 4 -9 13 -21 20 -33 21 -64 -7 -86 -74 -18 -58 -38 -78 -54 -53 -9 15
-2 57 13 76 5 7 8 22 6 35 -4 33 -52 37 -72 6z m14 -48 c0 -5 -5 -10 -11 -10
-5 0 -7 5 -4 10 3 6 8 10 11 10 2 0 4 -4 4 -10z m-25 -70 c3 -5 1 -10 -4 -10
-6 0 -11 5 -11 10 0 6 2 10 4 10 3 0 8 -4 11 -10z"/>
<path d="M1761 310 c-11 -6 -56 -110 -72 -162 -11 -39 12 -62 47 -46 17 8 24
18 21 30 -3 10 0 16 7 15 6 -1 10 6 8 15 -4 27 14 29 26 3 15 -32 54 -33 82
-3 l21 23 -7 -41 c-7 -46 5 -57 44 -43 25 10 45 53 39 86 -2 12 0 20 5 17 12
-8 39 60 35 88 -2 13 -12 25 -22 26 -24 5 -62 -17 -68 -39 -3 -11 -10 -19 -17
-19 -6 0 -8 5 -4 12 8 13 -12 3 -38 -20 -16 -13 -18 -12 -27 12 -6 14 -15 26
-21 26 -6 0 -9 4 -6 9 7 11 -39 21 -53 11z m-19 -97 c-3 -16 -7 -22 -10 -15
-4 13 4 42 11 42 2 0 2 -12 -1 -27z"/>
</g>
</svg>
